<?xml version="1.0" encoding="UTF-8" standalone="no"?>
<!DOCTYPE svg PUBLIC "-//W3C//DTD SVG 1.1//EN"
 "http://www.w3.org/Graphics/SVG/1.1/DTD/svg11.dtd">
<!-- Generated by graphviz version 2.40.1 (20161225.0304)
 -->
<!-- Title: state transitions Pages: 1 -->
<svg width="461pt" height="482pt"
 viewBox="0.00 0.00 460.50 482.00" xmlns="http://www.w3.org/2000/svg" xmlns:xlink="http://www.w3.org/1999/xlink">
<g id="graph0" class="graph" transform="scale(1 1) rotate(0) translate(4 478)">
<title>state transitions</title>
<polygon fill="#ffffff" stroke="transparent" points="-4,4 -4,-478 456.502,-478 456.502,4 -4,4"/>
<g id="clust1" class="cluster state regular">
<title>cluster_hub_out_sm</title>
<path fill="none" stroke="#000000" stroke-width="2" d="M20,-8C20,-8 374,-8 374,-8 380,-8 386,-14 386,-20 386,-20 386,-454 386,-454 386,-460 380,-466 374,-466 374,-466 20,-466 20,-466 14,-466 8,-460 8,-454 8,-454 8,-20 8,-20 8,-14 14,-8 20,-8"/>
<text text-anchor="start" x="163.9874" y="-447.2" font-family="Helvetica,sans-Serif" font-size="12.00" fill="#000000">hub_out_sm</text>
</g>
<!-- hub_out_sm -->
<!-- sm_reset -->
<g id="node2" class="node state regular">
<title>sm_reset</title>
<polygon fill="#ffffff" fill-opacity="0.003922" stroke="transparent" stroke-width="2" points="210.5,-428 139.5,-428 139.5,-392 210.5,-392 210.5,-428"/>
<text text-anchor="start" x="150.8316" y="-406.2" font-family="Helvetica,sans-Serif" font-size="12.00" fill="#000000">sm_reset</text>
<path fill="none" stroke="#000000" stroke-width="2" d="M151.8333,-393C151.8333,-393 198.1667,-393 198.1667,-393 203.8333,-393 209.5,-398.6667 209.5,-404.3333 209.5,-404.3333 209.5,-415.6667 209.5,-415.6667 209.5,-421.3333 203.8333,-427 198.1667,-427 198.1667,-427 151.8333,-427 151.8333,-427 146.1667,-427 140.5,-421.3333 140.5,-415.6667 140.5,-415.6667 140.5,-404.3333 140.5,-404.3333 140.5,-398.6667 146.1667,-393 151.8333,-393"/>
</g>
<!-- sm_reset&#45;&gt;sm_reset -->
<g id="edge2" class="edge transition">
<title>sm_reset&#45;&gt;sm_reset</title>
<path fill="none" stroke="#000000" d="M210.6563,-414.8747C222.7663,-414.9003 232.5,-413.2754 232.5,-410 232.5,-407.7482 227.8993,-406.2765 221.0887,-405.5848"/>
<polygon fill="#000000" stroke="#000000" points="220.8007,-402.0689 210.6563,-405.1253 220.4926,-409.0621 220.8007,-402.0689"/>
<text text-anchor="start" x="232.5" y="-413" font-family="Helvetica,sans-Serif" font-size="10.00" fill="#000000">reg_hub_f = &#39;0&#39; &#160;&#160;</text>
<text text-anchor="start" x="232.5" y="-401" font-family="Helvetica,sans-Serif" font-size="10.00" fill="#000000">mem_hub_f = &#39;1&#39; &#160;&#160;</text>
</g>
<!-- sm_clk_low -->
<g id="node3" class="node state regular">
<title>sm_clk_low</title>
<polygon fill="#ffffff" fill-opacity="0.003922" stroke="transparent" stroke-width="2" points="200.5,-334 117.5,-334 117.5,-298 200.5,-298 200.5,-334"/>
<text text-anchor="start" x="128.5022" y="-312.2" font-family="Helvetica,sans-Serif" font-size="12.00" fill="#000000">sm_clk_low</text>
<path fill="none" stroke="#000000" stroke-width="2" d="M129.8333,-299C129.8333,-299 188.1667,-299 188.1667,-299 193.8333,-299 199.5,-304.6667 199.5,-310.3333 199.5,-310.3333 199.5,-321.6667 199.5,-321.6667 199.5,-327.3333 193.8333,-333 188.1667,-333 188.1667,-333 129.8333,-333 129.8333,-333 124.1667,-333 118.5,-327.3333 118.5,-321.6667 118.5,-321.6667 118.5,-310.3333 118.5,-310.3333 118.5,-304.6667 124.1667,-299 129.8333,-299"/>
</g>
<!-- sm_reset&#45;&gt;sm_clk_low -->
<g id="edge1" class="edge transition">
<title>sm_reset&#45;&gt;sm_clk_low</title>
<path fill="none" stroke="#000000" d="M171.915,-391.8759C169.613,-378.3516 166.4245,-359.6192 163.7917,-344.1514"/>
<polygon fill="#000000" stroke="#000000" points="167.2039,-343.3394 162.0755,-334.0685 160.3032,-344.514 167.2039,-343.3394"/>
<text text-anchor="start" x="168" y="-366" font-family="Helvetica,sans-Serif" font-size="10.00" fill="#000000">reg_hub_f = &#39;1&#39; &#160;&#160;</text>
<text text-anchor="start" x="168" y="-354" font-family="Helvetica,sans-Serif" font-size="10.00" fill="#000000">mem_hub_f = &#39;1&#39; &#160;&#160;</text>
</g>
<!-- sm_clk_low&#45;&gt;sm_clk_low -->
<g id="edge4" class="edge transition">
<title>sm_clk_low&#45;&gt;sm_clk_low</title>
<path fill="none" stroke="#000000" d="M200.5296,-320.8643C212.8856,-320.7191 222.5,-319.0977 222.5,-316 222.5,-313.822 217.7468,-312.3737 210.6294,-311.6554"/>
<polygon fill="#000000" stroke="#000000" points="210.6963,-308.1543 200.5296,-311.1357 210.3365,-315.145 210.6963,-308.1543"/>
<text text-anchor="start" x="222.5" y="-313" font-family="Helvetica,sans-Serif" font-size="10.00" fill="#000000">clk_timer &gt; (hub_clk_tick / 2) &#160;&#160;</text>
</g>
<!-- sm_clk_hi -->
<g id="node4" class="node state regular">
<title>sm_clk_hi</title>
<polygon fill="#ffffff" fill-opacity="0.003922" stroke="transparent" stroke-width="2" points="90.5,-240 15.5,-240 15.5,-204 90.5,-204 90.5,-240"/>
<text text-anchor="start" x="26.8336" y="-218.2" font-family="Helvetica,sans-Serif" font-size="12.00" fill="#000000">sm_clk_hi</text>
<path fill="none" stroke="#000000" stroke-width="2" d="M27.8333,-205C27.8333,-205 78.1667,-205 78.1667,-205 83.8333,-205 89.5,-210.6667 89.5,-216.3333 89.5,-216.3333 89.5,-227.6667 89.5,-227.6667 89.5,-233.3333 83.8333,-239 78.1667,-239 78.1667,-239 27.8333,-239 27.8333,-239 22.1667,-239 16.5,-233.3333 16.5,-227.6667 16.5,-227.6667 16.5,-216.3333 16.5,-216.3333 16.5,-210.6667 22.1667,-205 27.8333,-205"/>
</g>
<!-- sm_clk_low&#45;&gt;sm_clk_hi -->
<g id="edge3" class="edge transition">
<title>sm_clk_low&#45;&gt;sm_clk_hi</title>
<path fill="none" stroke="#000000" d="M117.4678,-307.1401C91.9353,-300.7725 62.6606,-291.486 54.868,-281 48.4496,-272.3632 46.982,-260.8858 47.4838,-250.3509"/>
<polygon fill="#000000" stroke="#000000" points="50.9789,-250.5787 48.5317,-240.2704 44.0165,-249.8549 50.9789,-250.5787"/>
<text text-anchor="start" x="54" y="-266" font-family="Helvetica,sans-Serif" font-size="10.00" fill="#000000">clk_timer &lt;= (hub_clk_tick / 2) &#160;&#160;</text>
</g>
<!-- sm_clk_hi&#45;&gt;sm_clk_low -->
<g id="edge5" class="edge transition">
<title>sm_clk_hi&#45;&gt;sm_clk_low</title>
<path fill="none" stroke="#000000" d="M90.7239,-225.9299C128.8692,-230.774 184.0021,-240.4645 197,-257 205.24,-267.4827 199.4905,-279.785 190.2065,-290.4355"/>
<polygon fill="#000000" stroke="#000000" points="187.4508,-288.248 182.9711,-297.8492 192.4604,-293.1372 187.4508,-288.248"/>
<text text-anchor="start" x="200" y="-272" font-family="Helvetica,sans-Serif" font-size="10.00" fill="#000000">h_col &lt; g_num_col &#45; 1 &#160;&#160;</text>
<text text-anchor="start" x="200" y="-260" font-family="Helvetica,sans-Serif" font-size="10.00" fill="#000000">clk_timer = 0 &#160;&#160;</text>
</g>
<!-- sm_clk_hi&#45;&gt;sm_clk_hi -->
<g id="edge7" class="edge transition">
<title>sm_clk_hi&#45;&gt;sm_clk_hi</title>
<path fill="none" stroke="#000000" d="M90.7667,-226.8738C102.8908,-226.8238 112.5,-225.1992 112.5,-222 112.5,-219.8005 107.9582,-218.3453 101.1798,-217.6344"/>
<polygon fill="#000000" stroke="#000000" points="100.9255,-214.1179 90.7667,-217.1262 100.5842,-221.1096 100.9255,-214.1179"/>
<text text-anchor="start" x="112.5" y="-219" font-family="Helvetica,sans-Serif" font-size="10.00" fill="#000000">clk_timer &gt; 0 &#160;&#160;</text>
</g>
<!-- sm_delay -->
<g id="node5" class="node state regular">
<title>sm_delay</title>
<polygon fill="#ffffff" fill-opacity="0.003922" stroke="transparent" stroke-width="2" points="101.5,-134 28.5,-134 28.5,-98 101.5,-98 101.5,-134"/>
<text text-anchor="start" x="39.8296" y="-112.2" font-family="Helvetica,sans-Serif" font-size="12.00" fill="#000000">sm_delay</text>
<path fill="none" stroke="#000000" stroke-width="2" d="M40.8333,-99C40.8333,-99 89.1667,-99 89.1667,-99 94.8333,-99 100.5,-104.6667 100.5,-110.3333 100.5,-110.3333 100.5,-121.6667 100.5,-121.6667 100.5,-127.3333 94.8333,-133 89.1667,-133 89.1667,-133 40.8333,-133 40.8333,-133 35.1667,-133 29.5,-127.3333 29.5,-121.6667 29.5,-121.6667 29.5,-110.3333 29.5,-110.3333 29.5,-104.6667 35.1667,-99 40.8333,-99"/>
</g>
<!-- sm_clk_hi&#45;&gt;sm_delay -->
<g id="edge6" class="edge transition">
<title>sm_clk_hi&#45;&gt;sm_delay</title>
<path fill="none" stroke="#000000" d="M55.0902,-203.5362C56.94,-187.1966 59.6679,-163.1 61.7936,-144.3232"/>
<polygon fill="#000000" stroke="#000000" points="65.2865,-144.5825 62.9337,-134.2522 58.3309,-143.795 65.2865,-144.5825"/>
<text text-anchor="start" x="60" y="-172" font-family="Helvetica,sans-Serif" font-size="10.00" fill="#000000">clk_timer = 0 &#160;&#160;</text>
<text text-anchor="start" x="60" y="-160" font-family="Helvetica,sans-Serif" font-size="10.00" fill="#000000">not (h_col &lt; g_num_col &#45; 1) &#160;&#160;</text>
</g>
<!-- sm_delay&#45;&gt;sm_delay -->
<g id="edge8" class="edge transition">
<title>sm_delay&#45;&gt;sm_delay</title>
<path fill="none" stroke="#000000" d="M101.5625,-120.875C113.75,-120.875 123.5,-119.25 123.5,-116 123.5,-113.7148 118.6797,-112.2331 111.5812,-111.5547"/>
<polygon fill="#000000" stroke="#000000" points="111.7033,-108.0568 101.5625,-111.125 111.4033,-115.0503 111.7033,-108.0568"/>
<text text-anchor="start" x="123.5" y="-113" font-family="Helvetica,sans-Serif" font-size="10.00" fill="#000000">disp_timer &gt; 0 &#160;&#160;</text>
</g>
<!-- sm_latch_hi -->
<g id="node6" class="node state regular">
<title>sm_latch_hi</title>
<polygon fill="#ffffff" fill-opacity="0.003922" stroke="transparent" stroke-width="2" points="203,-52 117,-52 117,-16 203,-16 203,-52"/>
<text text-anchor="start" x="127.9954" y="-30.2" font-family="Helvetica,sans-Serif" font-size="12.00" fill="#000000">sm_latch_hi</text>
<path fill="none" stroke="#000000" stroke-width="2" d="M129.3333,-17C129.3333,-17 190.6667,-17 190.6667,-17 196.3333,-17 202,-22.6667 202,-28.3333 202,-28.3333 202,-39.6667 202,-39.6667 202,-45.3333 196.3333,-51 190.6667,-51 190.6667,-51 129.3333,-51 129.3333,-51 123.6667,-51 118,-45.3333 118,-39.6667 118,-39.6667 118,-28.3333 118,-28.3333 118,-22.6667 123.6667,-17 129.3333,-17"/>
</g>
<!-- sm_delay&#45;&gt;sm_latch_hi -->
<g id="edge9" class="edge transition">
<title>sm_delay&#45;&gt;sm_latch_hi</title>
<path fill="none" stroke="#000000" d="M86.0836,-97.8015C99.3668,-86.336 116.6914,-71.3822 131.229,-58.8339"/>
<polygon fill="#000000" stroke="#000000" points="133.6923,-61.3313 138.9754,-52.1476 129.1184,-56.0322 133.6923,-61.3313"/>
<text text-anchor="start" x="118" y="-72" font-family="Helvetica,sans-Serif" font-size="10.00" fill="#000000">disp_timer = 0 &#160;&#160;</text>
</g>
<!-- sm_latch_hi&#45;&gt;sm_reset -->
<g id="edge11" class="edge transition">
<title>sm_latch_hi&#45;&gt;sm_reset</title>
<path fill="none" stroke="#000000" d="M203.131,-39.1416C258.635,-46.3556 348,-60.2596 348,-75 348,-142.5 348,-142.5 348,-142.5 348,-209.0926 377,-222.9074 377,-289.5 377,-363 377,-363 377,-363 377,-394.8439 280.5664,-405.121 220.9583,-408.4319"/>
<polygon fill="#000000" stroke="#000000" points="220.4579,-404.9527 210.6486,-408.9561 220.8134,-411.9437 220.4579,-404.9527"/>
<text text-anchor="start" x="370" y="-225" font-family="Helvetica,sans-Serif" font-size="10.00" fill="#000000">mem_hub_f = &#39;0&#39; &#160;&#160;</text>
<text text-anchor="start" x="370" y="-213" font-family="Helvetica,sans-Serif" font-size="10.00" fill="#000000">clk_timer = 0 &#160;&#160;</text>
</g>
<!-- sm_latch_hi&#45;&gt;sm_clk_low -->
<g id="edge13" class="edge transition">
<title>sm_latch_hi&#45;&gt;sm_clk_low</title>
<path fill="none" stroke="#000000" d="M203.1891,-49.8248C212.1859,-55.9369 219,-64.1481 219,-75 219,-142.5 219,-142.5 219,-142.5 219,-190.9979 230.8845,-208.7832 268,-240 284.0441,-253.4942 300.1444,-239.7098 312,-257 318.0321,-265.7972 318.6485,-272.6588 312,-281 299.3836,-296.8284 249.8811,-306.0729 210.5546,-311.0444"/>
<polygon fill="#000000" stroke="#000000" points="210.0579,-307.5788 200.547,-312.2471 210.8932,-314.5288 210.0579,-307.5788"/>
<text text-anchor="start" x="224" y="-178" font-family="Helvetica,sans-Serif" font-size="10.00" fill="#000000">clk_timer = 0 &#160;&#160;</text>
<text text-anchor="start" x="224" y="-166" font-family="Helvetica,sans-Serif" font-size="10.00" fill="#000000">not (mem_hub_f = &#39;0&#39;) &#160;&#160;</text>
<text text-anchor="start" x="224" y="-154" font-family="Helvetica,sans-Serif" font-size="10.00" fill="#000000">not (reg_hub_f = &#39;0&#39;) &#160;&#160;</text>
</g>
<!-- sm_latch_hi&#45;&gt;sm_latch_hi -->
<g id="edge10" class="edge transition">
<title>sm_latch_hi&#45;&gt;sm_latch_hi</title>
<path fill="none" stroke="#000000" d="M203.1303,-36.428C215.4785,-36.3328 225,-35.5234 225,-34 225,-32.9288 220.2927,-32.2107 213.2054,-31.8456"/>
<polygon fill="#000000" stroke="#000000" points="213.2217,-28.3449 203.1303,-31.572 213.0316,-35.3423 213.2217,-28.3449"/>
<text text-anchor="start" x="225" y="-31" font-family="Helvetica,sans-Serif" font-size="10.00" fill="#000000">clk_timer &gt; 0 &#160;&#160;</text>
</g>
<!-- sm_latch_hi&#45;&gt;sm_latch_hi -->
<g id="edge12" class="edge transition">
<title>sm_latch_hi&#45;&gt;sm_latch_hi</title>
<path fill="none" stroke="#000000" d="M203.068,-38.1895C242.4125,-39.8652 290.286,-38.4688 290.286,-34 290.286,-29.9153 250.2872,-28.3975 213.3647,-29.4466"/>
<polygon fill="#000000" stroke="#000000" points="212.9381,-25.9594 203.068,-29.8105 213.1855,-32.955 212.9381,-25.9594"/>
<text text-anchor="start" x="290.286" y="-37" font-family="Helvetica,sans-Serif" font-size="10.00" fill="#000000">reg_hub_f = &#39;0&#39; &#160;&#160;</text>
<text text-anchor="start" x="290.286" y="-25" font-family="Helvetica,sans-Serif" font-size="10.00" fill="#000000">clk_timer = 0 &#160;&#160;</text>
</g>
</g>
</svg>
