<?xml version="1.0" encoding="UTF-8" standalone="no"?>
<!DOCTYPE svg PUBLIC "-//W3C//DTD SVG 1.1//EN"
 "http://www.w3.org/Graphics/SVG/1.1/DTD/svg11.dtd">
<!-- Generated by graphviz version 2.40.1 (20161225.0304)
 -->
<!-- Title: state transitions Pages: 1 -->
<svg width="338pt" height="282pt"
 viewBox="0.00 0.00 338.00 282.00" xmlns="http://www.w3.org/2000/svg" xmlns:xlink="http://www.w3.org/1999/xlink">
<g id="graph0" class="graph" transform="scale(1 1) rotate(0) translate(4 278)">
<title>state transitions</title>
<polygon fill="#ffffff" stroke="transparent" points="-4,4 -4,-278 334,-278 334,4 -4,4"/>
<g id="clust1" class="cluster state regular">
<title>cluster_simple_mem_sm</title>
<path fill="none" stroke="#000000" stroke-width="2" d="M20,-8C20,-8 310,-8 310,-8 316,-8 322,-14 322,-20 322,-20 322,-254 322,-254 322,-260 316,-266 310,-266 310,-266 20,-266 20,-266 14,-266 8,-260 8,-254 8,-254 8,-20 8,-20 8,-14 14,-8 20,-8"/>
<text text-anchor="start" x="119.6706" y="-247.2" font-family="Helvetica,sans-Serif" font-size="12.00" fill="#000000">simple_mem_sm</text>
</g>
<!-- simple_mem_sm -->
<!-- sm_load -->
<g id="node2" class="node state regular">
<title>sm_load</title>
<polygon fill="#ffffff" fill-opacity="0.003922" stroke="transparent" stroke-width="2" points="88.5,-228 21.5,-228 21.5,-192 88.5,-192 88.5,-228"/>
<text text-anchor="start" x="32.8296" y="-206.2" font-family="Helvetica,sans-Serif" font-size="12.00" fill="#000000">sm_load</text>
<path fill="none" stroke="#000000" stroke-width="2" d="M33.8333,-193C33.8333,-193 76.1667,-193 76.1667,-193 81.8333,-193 87.5,-198.6667 87.5,-204.3333 87.5,-204.3333 87.5,-215.6667 87.5,-215.6667 87.5,-221.3333 81.8333,-227 76.1667,-227 76.1667,-227 33.8333,-227 33.8333,-227 28.1667,-227 22.5,-221.3333 22.5,-215.6667 22.5,-215.6667 22.5,-204.3333 22.5,-204.3333 22.5,-198.6667 28.1667,-193 33.8333,-193"/>
</g>
<!-- sm_load&#45;&gt;sm_load -->
<g id="edge2" class="edge transition">
<title>sm_load&#45;&gt;sm_load</title>
<path fill="none" stroke="#000000" d="M88.597,-214.8702C100.6628,-214.975 110.5,-213.3516 110.5,-210 110.5,-207.6958 105.8504,-206.2084 99.0236,-205.5379"/>
<polygon fill="#000000" stroke="#000000" points="98.7262,-202.0236 88.597,-205.1298 98.4524,-209.0183 98.7262,-202.0236"/>
<text text-anchor="start" x="110.5" y="-207" font-family="Helvetica,sans-Serif" font-size="10.00" fill="#000000">not (top_dv_i = &#39;0&#39; or (mem_full = &#39;1&#39;)) &#160;&#160;</text>
</g>
<!-- sm_complete -->
<g id="node3" class="node state regular">
<title>sm_complete</title>
<polygon fill="#ffffff" fill-opacity="0.003922" stroke="transparent" stroke-width="2" points="208.5,-134 115.5,-134 115.5,-98 208.5,-98 208.5,-134"/>
<text text-anchor="start" x="126.8294" y="-112.2" font-family="Helvetica,sans-Serif" font-size="12.00" fill="#000000">sm_complete</text>
<path fill="none" stroke="#000000" stroke-width="2" d="M127.8333,-99C127.8333,-99 196.1667,-99 196.1667,-99 201.8333,-99 207.5,-104.6667 207.5,-110.3333 207.5,-110.3333 207.5,-121.6667 207.5,-121.6667 207.5,-127.3333 201.8333,-133 196.1667,-133 196.1667,-133 127.8333,-133 127.8333,-133 122.1667,-133 116.5,-127.3333 116.5,-121.6667 116.5,-121.6667 116.5,-110.3333 116.5,-110.3333 116.5,-104.6667 122.1667,-99 127.8333,-99"/>
</g>
<!-- sm_load&#45;&gt;sm_complete -->
<g id="edge1" class="edge transition">
<title>sm_load&#45;&gt;sm_complete</title>
<path fill="none" stroke="#000000" d="M49.9916,-191.7706C47.6633,-179.1418 47.0099,-162.5823 55.466,-151 61.9658,-142.0972 83.5613,-134.2221 105.6254,-128.2076"/>
<polygon fill="#000000" stroke="#000000" points="106.6082,-131.5685 115.4041,-125.6624 104.8449,-124.7942 106.6082,-131.5685"/>
<text text-anchor="start" x="55" y="-160" font-family="Helvetica,sans-Serif" font-size="10.00" fill="#000000">top_dv_i = &#39;0&#39; or (mem_full = &#39;1&#39;) &#160;&#160;</text>
</g>
<!-- sm_complete&#45;&gt;sm_load -->
<g id="edge4" class="edge transition">
<title>sm_complete&#45;&gt;sm_load</title>
<path fill="none" stroke="#000000" d="M193.4713,-134.3306C198.9398,-139.0293 203.8691,-144.5985 207,-151 211.6864,-160.582 213.6426,-166.6541 207,-175 193.6588,-191.7623 138.7432,-201.1745 98.7417,-205.9189"/>
<polygon fill="#000000" stroke="#000000" points="98.2169,-202.4558 88.6717,-207.0535 99.0008,-209.4117 98.2169,-202.4558"/>
<text text-anchor="start" x="211" y="-166" font-family="Helvetica,sans-Serif" font-size="10.00" fill="#000000">mem_timer &gt;= 7 &#160;&#160;</text>
<text text-anchor="start" x="211" y="-154" font-family="Helvetica,sans-Serif" font-size="10.00" fill="#000000">top_dv_i = &#39;1&#39; &#160;&#160;</text>
</g>
<!-- sm_complete&#45;&gt;sm_complete -->
<g id="edge3" class="edge transition">
<title>sm_complete&#45;&gt;sm_complete</title>
<path fill="none" stroke="#000000" d="M208.7439,-120.8322C221.1236,-120.556 230.5,-118.9453 230.5,-116 230.5,-113.9291 225.8645,-112.518 218.8087,-111.7666"/>
<polygon fill="#000000" stroke="#000000" points="218.9341,-108.268 208.7439,-111.1678 218.5183,-115.2556 218.9341,-108.268"/>
<text text-anchor="start" x="230.5" y="-119" font-family="Helvetica,sans-Serif" font-size="10.00" fill="#000000">mem_timer &lt; 7 &#160;&#160;</text>
<text text-anchor="start" x="230.5" y="-107" font-family="Helvetica,sans-Serif" font-size="10.00" fill="#000000">top_dv_i = &#39;1&#39; &#160;&#160;</text>
</g>
<!-- sm_read -->
<g id="node4" class="node state regular">
<title>sm_read</title>
<polygon fill="#ffffff" fill-opacity="0.003922" stroke="transparent" stroke-width="2" points="182,-52 114,-52 114,-16 182,-16 182,-52"/>
<text text-anchor="start" x="124.6636" y="-30.2" font-family="Helvetica,sans-Serif" font-size="12.00" fill="#000000">sm_read</text>
<path fill="none" stroke="#000000" stroke-width="2" d="M126.3333,-17C126.3333,-17 169.6667,-17 169.6667,-17 175.3333,-17 181,-22.6667 181,-28.3333 181,-28.3333 181,-39.6667 181,-39.6667 181,-45.3333 175.3333,-51 169.6667,-51 169.6667,-51 126.3333,-51 126.3333,-51 120.6667,-51 115,-45.3333 115,-39.6667 115,-39.6667 115,-28.3333 115,-28.3333 115,-22.6667 120.6667,-17 126.3333,-17"/>
</g>
<!-- sm_complete&#45;&gt;sm_read -->
<g id="edge5" class="edge transition">
<title>sm_complete&#45;&gt;sm_read</title>
<path fill="none" stroke="#000000" d="M124.5923,-97.9254C118.5212,-93.279 113.0628,-87.6644 109.496,-81 105.6462,-73.807 107.6373,-66.6702 112.2913,-60.2123"/>
<polygon fill="#000000" stroke="#000000" points="115.2232,-62.1912 119.3713,-52.4422 110.0489,-57.4766 115.2232,-62.1912"/>
<text text-anchor="start" x="109" y="-72" font-family="Helvetica,sans-Serif" font-size="10.00" fill="#000000">top_dv_i = &#39;0&#39; &#160;&#160;</text>
</g>
<!-- sm_read&#45;&gt;sm_complete -->
<g id="edge6" class="edge transition">
<title>sm_read&#45;&gt;sm_complete</title>
<path fill="none" stroke="#000000" d="M167.8922,-52.3677C172.016,-57.3255 175.7787,-62.9952 178,-69 180.2765,-75.1541 179.7844,-81.8041 177.9688,-88.111"/>
<polygon fill="#000000" stroke="#000000" points="174.6326,-87.0314 174.2342,-97.6188 181.148,-89.5907 174.6326,-87.0314"/>
<text text-anchor="start" x="179" y="-72" font-family="Helvetica,sans-Serif" font-size="10.00" fill="#000000">top_dv_i = &#39;1&#39; &#160;&#160;</text>
</g>
</g>
</svg>
