<?xml version="1.0" encoding="UTF-8" standalone="no"?>
<!DOCTYPE svg PUBLIC "-//W3C//DTD SVG 1.1//EN"
 "http://www.w3.org/Graphics/SVG/1.1/DTD/svg11.dtd">
<!-- Generated by graphviz version 2.40.1 (20161225.0304)
 -->
<!-- Title: state transitions Pages: 1 -->
<svg width="384pt" height="282pt"
 viewBox="0.00 0.00 384.00 282.00" xmlns="http://www.w3.org/2000/svg" xmlns:xlink="http://www.w3.org/1999/xlink">
<g id="graph0" class="graph" transform="scale(1 1) rotate(0) translate(4 278)">
<title>state transitions</title>
<polygon fill="#ffffff" stroke="transparent" points="-4,4 -4,-278 380,-278 380,4 -4,4"/>
<g id="clust1" class="cluster state regular">
<title>cluster_mem_to_reg</title>
<path fill="none" stroke="#000000" stroke-width="2" d="M20,-8C20,-8 356,-8 356,-8 362,-8 368,-14 368,-20 368,-20 368,-254 368,-254 368,-260 362,-266 356,-266 356,-266 20,-266 20,-266 14,-266 8,-260 8,-254 8,-254 8,-20 8,-20 8,-14 14,-8 20,-8"/>
<text text-anchor="start" x="154.828" y="-247.2" font-family="Helvetica,sans-Serif" font-size="12.00" fill="#000000">mem_to_reg</text>
</g>
<!-- mem_to_reg -->
<!-- sm_stop -->
<g id="node2" class="node state regular">
<title>sm_stop</title>
<polygon fill="#ffffff" fill-opacity="0.003922" stroke="transparent" stroke-width="2" points="207.5,-228 140.5,-228 140.5,-192 207.5,-192 207.5,-228"/>
<text text-anchor="start" x="151.829" y="-206.2" font-family="Helvetica,sans-Serif" font-size="12.00" fill="#000000">sm_stop</text>
<path fill="none" stroke="#000000" stroke-width="2" d="M152.8333,-193C152.8333,-193 195.1667,-193 195.1667,-193 200.8333,-193 206.5,-198.6667 206.5,-204.3333 206.5,-204.3333 206.5,-215.6667 206.5,-215.6667 206.5,-221.3333 200.8333,-227 195.1667,-227 195.1667,-227 152.8333,-227 152.8333,-227 147.1667,-227 141.5,-221.3333 141.5,-215.6667 141.5,-215.6667 141.5,-204.3333 141.5,-204.3333 141.5,-198.6667 147.1667,-193 152.8333,-193"/>
</g>
<!-- sm_stop&#45;&gt;sm_stop -->
<g id="edge2" class="edge transition">
<title>sm_stop&#45;&gt;sm_stop</title>
<path fill="none" stroke="#000000" d="M207.597,-214.8702C219.6628,-214.975 229.5,-213.3516 229.5,-210 229.5,-207.6958 224.8504,-206.2084 218.0236,-205.5379"/>
<polygon fill="#000000" stroke="#000000" points="217.7262,-202.0236 207.597,-205.1298 217.4524,-209.0183 217.7262,-202.0236"/>
<text text-anchor="start" x="229.5" y="-207" font-family="Helvetica,sans-Serif" font-size="10.00" fill="#000000">mem_reg_f &lt;= &#39;0&#39; &#160;&#160;</text>
</g>
<!-- sm_load -->
<g id="node3" class="node state regular">
<title>sm_load</title>
<polygon fill="#ffffff" fill-opacity="0.003922" stroke="transparent" stroke-width="2" points="83.5,-146 16.5,-146 16.5,-110 83.5,-110 83.5,-146"/>
<text text-anchor="start" x="27.8296" y="-124.2" font-family="Helvetica,sans-Serif" font-size="12.00" fill="#000000">sm_load</text>
<path fill="none" stroke="#000000" stroke-width="2" d="M28.8333,-111C28.8333,-111 71.1667,-111 71.1667,-111 76.8333,-111 82.5,-116.6667 82.5,-122.3333 82.5,-122.3333 82.5,-133.6667 82.5,-133.6667 82.5,-139.3333 76.8333,-145 71.1667,-145 71.1667,-145 28.8333,-145 28.8333,-145 23.1667,-145 17.5,-139.3333 17.5,-133.6667 17.5,-133.6667 17.5,-122.3333 17.5,-122.3333 17.5,-116.6667 23.1667,-111 28.8333,-111"/>
</g>
<!-- sm_stop&#45;&gt;sm_load -->
<g id="edge1" class="edge transition">
<title>sm_stop&#45;&gt;sm_load</title>
<path fill="none" stroke="#000000" d="M140.4871,-206.823C117.0492,-202.9309 86.517,-194.2705 66.728,-175 61.475,-169.8846 57.8669,-163.0128 55.3903,-156.1055"/>
<polygon fill="#000000" stroke="#000000" points="58.6542,-154.7931 52.5115,-146.1607 51.9302,-156.7396 58.6542,-154.7931"/>
<text text-anchor="start" x="66" y="-166" font-family="Helvetica,sans-Serif" font-size="10.00" fill="#000000">mem_reg_f = &#39;1&#39; &#160;&#160;</text>
</g>
<!-- sm_load&#45;&gt;sm_stop -->
<g id="edge5" class="edge transition">
<title>sm_load&#45;&gt;sm_stop</title>
<path fill="none" stroke="#000000" d="M83.912,-133.8119C104.3388,-138.7364 129.826,-147.5593 148,-163 154.156,-168.2302 159.1229,-175.3023 163.0005,-182.371"/>
<polygon fill="#000000" stroke="#000000" points="160.089,-184.385 167.6225,-191.8346 166.3789,-181.313 160.089,-184.385"/>
<text text-anchor="start" x="158" y="-166" font-family="Helvetica,sans-Serif" font-size="10.00" fill="#000000">mem_reg_f = &#39;0&#39; &#160;&#160;</text>
</g>
<!-- sm_load&#45;&gt;sm_load -->
<g id="edge3" class="edge transition">
<title>sm_load&#45;&gt;sm_load</title>
<path fill="none" stroke="#000000" d="M83.597,-132.8702C95.6628,-132.975 105.5,-131.3516 105.5,-128 105.5,-125.6958 100.8504,-124.2084 94.0236,-123.5379"/>
<polygon fill="#000000" stroke="#000000" points="93.7262,-120.0236 83.597,-123.1298 93.4524,-127.0183 93.7262,-120.0236"/>
<text text-anchor="start" x="105.5" y="-131" font-family="Helvetica,sans-Serif" font-size="10.00" fill="#000000">reg_col_inc &lt; g_num_col &#45; 1 &#160;&#160;</text>
<text text-anchor="start" x="105.5" y="-119" font-family="Helvetica,sans-Serif" font-size="10.00" fill="#000000">mem_reg_f = &#39;1&#39; &#160;&#160;</text>
</g>
<!-- sm_done -->
<g id="node4" class="node state regular">
<title>sm_done</title>
<polygon fill="#ffffff" fill-opacity="0.003922" stroke="transparent" stroke-width="2" points="257.5,-52 186.5,-52 186.5,-16 257.5,-16 257.5,-52"/>
<text text-anchor="start" x="197.8256" y="-30.2" font-family="Helvetica,sans-Serif" font-size="12.00" fill="#000000">sm_done</text>
<path fill="none" stroke="#000000" stroke-width="2" d="M198.8333,-17C198.8333,-17 245.1667,-17 245.1667,-17 250.8333,-17 256.5,-22.6667 256.5,-28.3333 256.5,-28.3333 256.5,-39.6667 256.5,-39.6667 256.5,-45.3333 250.8333,-51 245.1667,-51 245.1667,-51 198.8333,-51 198.8333,-51 193.1667,-51 187.5,-45.3333 187.5,-39.6667 187.5,-39.6667 187.5,-28.3333 187.5,-28.3333 187.5,-22.6667 193.1667,-17 198.8333,-17"/>
</g>
<!-- sm_load&#45;&gt;sm_done -->
<g id="edge4" class="edge transition">
<title>sm_load&#45;&gt;sm_done</title>
<path fill="none" stroke="#000000" d="M46.3217,-109.8257C44.8211,-96.8917 45.289,-79.9346 54.958,-69 70.7212,-51.1734 132.4636,-41.9382 176.2819,-37.5313"/>
<polygon fill="#000000" stroke="#000000" points="176.8193,-40.996 186.4419,-36.5625 176.1548,-34.0276 176.8193,-40.996"/>
<text text-anchor="start" x="54" y="-84" font-family="Helvetica,sans-Serif" font-size="10.00" fill="#000000">reg_col_inc &gt;= g_num_col &#45; 1 &#160;&#160;</text>
<text text-anchor="start" x="54" y="-72" font-family="Helvetica,sans-Serif" font-size="10.00" fill="#000000">mem_reg_f = &#39;1&#39; &#160;&#160;</text>
</g>
<!-- sm_done&#45;&gt;sm_stop -->
<g id="edge8" class="edge transition">
<title>sm_done&#45;&gt;sm_stop</title>
<path fill="none" stroke="#000000" d="M257.5058,-41.6065C272.3656,-46.7317 288.2008,-55.1835 297,-69 302.7299,-77.997 300.0622,-82.7823 297,-93 284.4727,-134.8003 275.5482,-145.9344 243,-175 235.3356,-181.8443 226.0903,-187.7235 216.8933,-192.6033"/>
<polygon fill="#000000" stroke="#000000" points="215.1618,-189.5556 207.7728,-197.1485 218.2841,-195.8207 215.1618,-189.5556"/>
<text text-anchor="start" x="291" y="-125" font-family="Helvetica,sans-Serif" font-size="10.00" fill="#000000">mem_reg_f = &#39;0&#39; &#160;&#160;</text>
</g>
<!-- sm_done&#45;&gt;sm_load -->
<g id="edge7" class="edge transition">
<title>sm_done&#45;&gt;sm_load</title>
<path fill="none" stroke="#000000" d="M218.5307,-52.0668C215.0545,-65.2947 208.3748,-82.6716 196,-93 180.5894,-105.8622 130.8745,-115.9165 93.7111,-121.8859"/>
<polygon fill="#000000" stroke="#000000" points="92.9433,-118.4632 83.6009,-123.4602 94.0204,-125.3798 92.9433,-118.4632"/>
<text text-anchor="start" x="212" y="-84" font-family="Helvetica,sans-Serif" font-size="10.00" fill="#000000">hub_reg_f = &#39;1&#39; &#160;&#160;</text>
<text text-anchor="start" x="212" y="-72" font-family="Helvetica,sans-Serif" font-size="10.00" fill="#000000">mem_reg_f = &#39;1&#39; &#160;&#160;</text>
</g>
<!-- sm_done&#45;&gt;sm_done -->
<g id="edge6" class="edge transition">
<title>sm_done&#45;&gt;sm_done</title>
<path fill="none" stroke="#000000" d="M257.6563,-38.8747C269.7663,-38.9003 279.5,-37.2754 279.5,-34 279.5,-31.7482 274.8993,-30.2765 268.0887,-29.5848"/>
<polygon fill="#000000" stroke="#000000" points="267.8007,-26.0689 257.6563,-29.1253 267.4926,-33.0621 267.8007,-26.0689"/>
<text text-anchor="start" x="279.5" y="-37" font-family="Helvetica,sans-Serif" font-size="10.00" fill="#000000">hub_reg_f = &#39;0&#39; &#160;&#160;</text>
<text text-anchor="start" x="279.5" y="-25" font-family="Helvetica,sans-Serif" font-size="10.00" fill="#000000">mem_reg_f = &#39;1&#39; &#160;&#160;</text>
</g>
</g>
</svg>
